<svg xmlns="http://www.w3.org/2000/svg" width="834" height="316"><g fill="#231f20"><path d="M369.748 258.679a66.262 66.262 0 0 0 1.583-2 70.07 70.07 0 0 0 2.292-2.917c.541-.708 1.083-1.375 1.583-2.083.917-1.209 1.792-2.375 2.583-3.542 1-1.417 1.959-2.792 2.875-4.167 1.25-1.875 2.459-3.708 3.542-5.5a87.384 87.384 0 0 0 1.875-3.083c.583-1 1.167-2 1.708-2.958a75.641 75.641 0 0 0 27.334 5.083c22.041 0 43.875-9.542 58.833-28 21.5-26.542 22.125-63.25 3.875-90.167a186.235 186.235 0 0 0 23.625-23.25c1.917-2.25 3.833-4.666 5.792-7.166l1.5-2a185.254 185.254 0 0 0 3.916-5.5h.042c4.708-6.875 9.292-14.5 13.458-22.959A183.035 183.035 0 0 0 543.498.637a183.517 183.517 0 0 0-53 28.958c-2.709 2.125-5.334 4.292-7.792 6.5a62.732 62.732 0 0 0-3 2.709c-3.625 3.291-6.958 6.666-10.083 10-2.25 2.375-4.334 4.791-6.334 7.166-.041.042-.125.125-.166.209-1.959 2.375-3.834 4.708-5.542 7-5.417 7.083-9.708 13.833-13.167 19.833a121.903 121.903 0 0 0-2.125 3.833 77.774 77.774 0 0 0-1.916 3.584 75.955 75.955 0 0 0-25.208-4.292c-22.042 0-43.876 9.583-58.834 28.042-20.417 25.166-22 59.541-6.5 85.958a185.55 185.55 0 0 0-21.458 22.25 193.665 193.665 0 0 0-5.75 7.458h-.042a171.183 171.183 0 0 0-5.417 7.834c-1.083 1.625-2.125 3.291-3.208 5.041-.875 1.417-1.708 2.875-2.583 4.375-1.875 3.292-3.709 6.667-5.459 10.25a183.04 183.04 0 0 0-17.333 57.834c13.875-4.834 33.208-13.417 52.958-28.917 5.75-4.5 10.917-9.167 15.625-13.792a217.685 217.685 0 0 0 6.167-6.416 6.33 6.33 0 0 1 .5-.542c2.083-2.292 4.083-4.583 5.875-6.875 0 .042.042.042.042.042Zm47.666-135.375c21.709 0 39.334 17.625 39.334 39.333s-17.625 39.333-39.334 39.333c-21.708 0-39.333-17.625-39.333-39.333s17.625-39.333 39.333-39.333Z"/><path d="M519.04 86.929c-.292.416-.626.833-.917 1.25a200.695 200.695 0 0 1-5.667 7.625 193.827 193.827 0 0 1-5.958 7.166c11.458 17.084 18.166 37.625 18.166 59.667 0 59.125-48.125 107.25-107.25 107.25-14.083 0-27.5-2.75-39.791-7.708-4 4.958-8.167 9.708-12.625 14.208 15.958 7.375 33.708 11.542 52.416 11.542 41.084 0 77.584-19.875 100.459-50.5 36.333 0 62.208 0 69.25-.084 26.666-.291 38.791-32.25 40.5-36.208h-91c3.916-12.167 6.083-25.083 6.083-38.5 0-7.792-.75-15.375-2.125-22.75 100.25.042 226.708.042 236.208-.042 26.667-.333 55.459-48.958 57.209-52.916H519.039ZM312.081 230.304a211.608 211.608 0 0 1 5.708-7.917c1.917-2.542 3.959-5.042 6-7.5-8.666-15.458-13.625-33.292-13.625-52.25 0-59.125 48.125-107.25 107.25-107.25 11.125 0 21.834 1.708 31.959 4.875a188.756 188.756 0 0 1 12.125-14.875c-13.75-5.167-28.584-8.042-44.084-8.042-40.666 0-76.833 19.5-99.75 49.584H.831c1.75 3.958 30.5 52.458 57.208 52.916 11.709.167 136.834.125 236.167.084-1.333 7.375-2.083 14.958-2.083 22.708 0 13.417 2.166 26.333 6.083 38.5h-91.042c1.75 3.958 13.875 35.792 40.542 36.208 7.75.125 29.292.167 59.708.167 1.5-2.458 3.042-4.833 4.667-7.208ZM403.04 169.637h11.833v-9.208h-11.834v-8.334h11.834v-9.25h-22.25v40.459h10.416v-13.667ZM442.998 176.72v-8.958c0-3.042-1.417-4.417-3.5-4.792v-.083c2.125-.75 3.5-2.167 3.5-5.208v-8.209c0-4.791-2.542-6.625-7.167-6.625h-18.333v9.209h15.041v6.208h-9.208v9.25h9.208v6.5h-15.041v9.292h18.291c4.5 0 7.209-2.5 7.209-6.584Z"/></g><style>path{fill:#231f20}@media (prefers-color-scheme:dark){path{fill:#fff}}</style></svg>
