<svg xmlns="http://www.w3.org/2000/svg" width="1061" height="487"><g fill="#f6f7f9"><path d="M482.747 383.813a66.402 66.402 0 0 0 1.584-2 70.09 70.09 0 0 0 2.291-2.917c.542-.708 1.084-1.375 1.584-2.083.916-1.208 1.791-2.375 2.583-3.542 1-1.416 1.959-2.792 2.875-4.167 1.25-1.874 2.459-3.708 3.542-5.5a87.332 87.332 0 0 0 1.875-3.083c.583-1 1.167-2 1.708-2.958a75.642 75.642 0 0 0 27.334 5.083c22.041 0 43.874-9.541 58.833-28 21.5-26.541 22.125-63.25 3.875-90.166a186.232 186.232 0 0 0 23.625-23.25c1.917-2.25 3.833-4.667 5.791-7.167l1.5-2a185.145 185.145 0 0 0 3.917-5.5h.042c4.708-6.875 9.291-14.5 13.458-22.958a183.035 183.035 0 0 0 17.334-57.834 183.515 183.515 0 0 0-53 28.959c-2.709 2.125-5.334 4.291-7.792 6.5a62.701 62.701 0 0 0-3 2.708c-3.625 3.292-6.959 6.667-10.084 10-2.25 2.375-4.333 4.792-6.333 7.166-.041.042-.125.126-.167.209-1.958 2.375-3.833 4.708-5.541 7-5.417 7.083-9.709 13.833-13.167 19.833a121.849 121.849 0 0 0-2.125 3.834 77.79 77.79 0 0 0-1.916 3.583 75.955 75.955 0 0 0-25.209-4.292c-22.042 0-43.875 9.584-58.833 28.042-20.417 25.166-22 59.541-6.5 85.958a185.546 185.546 0 0 0-21.458 22.25 193.666 193.666 0 0 0-5.75 7.459h-.042a171.214 171.214 0 0 0-5.417 7.833c-1.083 1.625-2.125 3.292-3.208 5.041-.875 1.417-1.708 2.875-2.584 4.375-1.875 3.292-3.708 6.667-5.458 10.25a183.04 183.04 0 0 0-17.333 57.834c13.875-4.833 33.208-13.417 52.958-28.917 5.75-4.5 10.917-9.167 15.625-13.791a217.649 217.649 0 0 0 6.167-6.417c.166-.209.333-.375.5-.542 2.083-2.291 4.083-4.583 5.875-6.875 0 .042.041.042.041.042Zm47.667-135.375c21.709 0 39.334 17.625 39.334 39.333s-17.625 39.334-39.334 39.334c-21.708 0-39.333-17.626-39.333-39.334 0-21.708 17.625-39.333 39.333-39.333Z"/><path d="M631.122 213.313a200.582 200.582 0 0 1-5.666 7.625 193.88 193.88 0 0 1-5.958 7.167c11.458 17.083 18.166 37.624 18.166 59.666 0 59.125-48.125 107.25-107.25 107.25-14.083 0-27.5-2.75-39.791-7.708-4 4.958-8.167 9.708-12.626 14.208 15.959 7.375 33.709 11.542 52.417 11.542 41.083 0 77.583-19.875 100.458-50.5 36.334 0 62.209 0 69.25-.083 26.667-.292 38.792-32.25 40.5-36.209h-91c3.917-12.166 6.084-25.083 6.084-38.5 0-7.791-.75-15.375-2.125-22.75 100.25.042 226.708.042 236.208-.042 26.667-.333 55.459-48.958 57.208-52.916H632.04c-.291.417-.625.833-.917 1.25ZM405.122 287.771c0 13.417 2.167 26.334 6.084 38.5h-91.042c1.75 3.959 13.875 35.792 40.542 36.209 7.75.124 29.291.166 59.708.166 1.5-2.458 3.042-4.833 4.667-7.208a211.614 211.614 0 0 1 5.708-7.917c1.917-2.542 3.958-5.041 6-7.5-8.666-15.458-13.625-33.291-13.625-52.25 0-59.125 48.125-107.25 107.25-107.25 11.125 0 21.833 1.709 31.958 4.875a188.769 188.769 0 0 1 12.126-14.875c-13.75-5.166-28.584-8.041-44.084-8.041-40.667 0-76.833 19.5-99.75 49.583H113.831c1.75 3.958 30.5 52.458 57.208 52.916 11.709.167 136.833.126 236.167.084-1.334 7.375-2.084 14.958-2.084 22.708ZM516.04 294.771h11.833v-9.208h-11.834v-8.334h11.834v-9.25h-22.25v40.459h10.416V294.77ZM555.998 301.855v-8.959c0-3.041-1.417-4.416-3.5-4.791v-.084c2.124-.75 3.5-2.167 3.5-5.208v-8.209c0-4.791-2.542-6.624-7.167-6.624h-18.333v9.208h15.041v6.208h-9.208v9.25h9.208v6.5h-15.041v9.292h18.291c4.5 0 7.209-2.5 7.209-6.583ZM210.195 486.464h4.082v-9.534h11.804v-3.711h-11.804v-6.453h13.31v-3.716h-17.392v23.414ZM235.712 486.464h4.081V463.05h-4.08v23.414ZM247.752 466.863h7.426v19.6h4.147v-19.6h7.421v-3.813h-18.994v3.813ZM290.762 479.241l-12.517-16.19h-3.804v23.413h4.081v-16.655l12.883 16.655h3.438V463.05h-4.081v16.191ZM308.291 476.499h11.74v-3.715h-11.74v-6.018h13.24v-3.716H304.21v23.414h17.492v-3.711h-13.411v-6.254ZM344.607 475.31c-.627-.545-1.416-1.009-2.364-1.387a26.897 26.897 0 0 0-3.272-1.038 34.046 34.046 0 0 1-2.767-.769c-.724-.244-1.294-.508-1.709-.785-.415-.28-.7-.59-.854-.936a2.893 2.893 0 0 1-.236-1.188v-.07c0-.776.338-1.436 1.005-1.973.667-.533 1.603-.801 2.808-.801 1.07 0 2.132.207 3.178.618 1.05.415 2.107 1.01 3.177 1.79l2.21-3.112a13.827 13.827 0 0 0-3.866-2.19c-1.371-.5-2.913-.752-4.63-.752-1.16 0-2.23.167-3.207.5-.98.338-1.818.798-2.514 1.392a6.35 6.35 0 0 0-1.644 2.14c-.399.834-.594 1.754-.594 2.759v.065c0 1.07.17 1.986.517 2.743.345.756.85 1.4 1.51 1.924.658.525 1.476.969 2.449 1.339.972.366 2.083.696 3.336.985 1.095.244 1.982.492 2.665.736.68.244 1.217.513 1.608.802.39.289.659.598.805.92.147.325.22.695.22 1.122v.066c0 .89-.374 1.603-1.123 2.14-.745.537-1.754.801-3.027.801-1.47 0-2.788-.26-3.943-.785-1.16-.525-2.311-1.278-3.447-2.258l-2.474 2.946c1.404 1.27 2.93 2.213 4.582 2.824a14.72 14.72 0 0 0 5.184.92c1.225 0 2.352-.155 3.373-.469 1.026-.313 1.9-.769 2.633-1.371a6.361 6.361 0 0 0 1.709-2.205c.407-.871.61-1.852.61-2.946v-.065c0-.96-.162-1.803-.484-2.527a5.525 5.525 0 0 0-1.424-1.905ZM369.355 475.31c-.627-.545-1.416-1.009-2.364-1.387a26.9 26.9 0 0 0-3.272-1.038 34.04 34.04 0 0 1-2.767-.769c-.724-.244-1.294-.508-1.709-.785-.415-.28-.7-.59-.854-.936a2.892 2.892 0 0 1-.236-1.188v-.07c0-.776.337-1.436 1.005-1.973.667-.533 1.603-.801 2.807-.801 1.07 0 2.132.207 3.178.618 1.05.415 2.108 1.01 3.178 1.79l2.21-3.112a13.828 13.828 0 0 0-3.866-2.19c-1.371-.5-2.913-.752-4.63-.752-1.16 0-2.23.167-3.207.5-.98.338-1.819.798-2.515 1.392a6.35 6.35 0 0 0-1.643 2.14c-.4.834-.595 1.754-.595 2.759v.065c0 1.07.171 1.986.517 2.743.346.756.85 1.4 1.51 1.924.659.525 1.477.969 2.45 1.339.972.366 2.083.696 3.336.985 1.095.244 1.982.492 2.665.736.68.244 1.217.513 1.607.802.391.289.66.598.806.92.147.325.22.695.22 1.122v.066c0 .89-.374 1.603-1.123 2.14-.745.537-1.754.801-3.028.801-1.468 0-2.787-.26-3.942-.785-1.16-.525-2.312-1.278-3.447-2.258l-2.474 2.946c1.404 1.27 2.93 2.213 4.582 2.824a14.72 14.72 0 0 0 5.184.92c1.225 0 2.352-.155 3.373-.469 1.025-.313 1.9-.769 2.633-1.371a6.362 6.362 0 0 0 1.709-2.205c.407-.871.61-1.852.61-2.946v-.065c0-.96-.163-1.803-.484-2.527a5.526 5.526 0 0 0-1.424-1.905ZM401.35 471.347a5.055 5.055 0 0 0-1.506-1.005 4.574 4.574 0 0 0-1.823-.366c-.647 0-1.253.122-1.823.366a4.783 4.783 0 0 0-1.49 1.005c-.423.423-.764.92-1.02 1.49a4.371 4.371 0 0 0-.383 1.822v.065a4.574 4.574 0 0 0 1.387 3.313c.436.423.936.756 1.506 1 .57.249 1.176.37 1.823.37s1.257-.121 1.839-.37a4.897 4.897 0 0 0 1.522-1 4.574 4.574 0 0 0 1.388-3.312v-.066c0-.647-.13-1.257-.387-1.823a4.862 4.862 0 0 0-1.034-1.489ZM425.983 486.464h4.081v-9.534h11.804v-3.711h-11.804v-6.453h13.31v-3.716h-17.391v23.414ZM455.35 476.499h11.738v-3.715H455.35v-6.018h13.24v-3.716h-17.321v23.414h17.493v-3.711h-13.412v-6.254ZM481.102 463.05h-4.081v23.414h16.386v-3.711h-12.305V463.05ZM505.146 463.05h-4.082v23.414h16.386v-3.711h-12.304V463.05ZM545.144 466.196c-1.07-1.09-2.352-1.957-3.845-2.592-1.494-.635-3.146-.952-4.948-.952-1.807 0-3.459.321-4.952.968-1.493.647-2.787 1.522-3.878 2.625a11.822 11.822 0 0 0-2.543 3.849 12.113 12.113 0 0 0-.903 4.663v.07c0 1.647.3 3.202.903 4.662a11.857 11.857 0 0 0 2.506 3.83c1.07 1.094 2.352 1.956 3.85 2.591 1.493.639 3.141.956 4.948.956 1.806 0 3.454-.325 4.952-.972a12.273 12.273 0 0 0 3.877-2.625 11.827 11.827 0 0 0 2.544-3.845c.602-1.46.903-3.015.903-4.667v-.065c0-1.652-.301-3.206-.903-4.667a11.912 11.912 0 0 0-2.511-3.83Zm-.936 8.63a8.867 8.867 0 0 1-.582 3.21 8.289 8.289 0 0 1-1.615 2.625 7.539 7.539 0 0 1-2.482 1.774c-.965.432-2.027.651-3.178.651-1.156 0-2.222-.224-3.198-.671a7.892 7.892 0 0 1-2.515-1.786 7.97 7.97 0 0 1-1.632-2.645 8.886 8.886 0 0 1-.586-3.227v-.065c0-1.14.196-2.21.586-3.21a8.192 8.192 0 0 1 1.616-2.63 7.57 7.57 0 0 1 2.478-1.77c.968-.435 2.026-.654 3.182-.654 1.155 0 2.221.224 3.198.671a7.903 7.903 0 0 1 2.515 1.79c.7.745 1.24 1.628 1.631 2.641a8.987 8.987 0 0 1 .582 3.227v.07ZM580.097 480.409l-5.754-17.424h-3.475l-5.753 17.424-5.587-17.359h-4.447l8.158 23.58h3.548l5.75-16.82 5.753 16.82h3.548l8.159-23.58h-4.313l-5.587 17.359ZM612.201 475.31c-.626-.545-1.416-1.009-2.364-1.387a26.9 26.9 0 0 0-3.271-1.038 34.04 34.04 0 0 1-2.767-.769c-.724-.244-1.294-.508-1.71-.785-.414-.28-.699-.59-.854-.936a2.892 2.892 0 0 1-.236-1.188v-.07c0-.776.338-1.436 1.005-1.973.668-.533 1.604-.801 2.808-.801 1.07 0 2.132.207 3.178.618 1.05.415 2.108 1.01 3.178 1.79l2.21-3.112a13.828 13.828 0 0 0-3.866-2.19c-1.372-.5-2.914-.752-4.63-.752-1.16 0-2.23.167-3.207.5-.98.338-1.819.798-2.515 1.392a6.35 6.35 0 0 0-1.644 2.14c-.399.834-.594 1.754-.594 2.759v.065c0 1.07.171 1.986.517 2.743.346.756.85 1.4 1.51 1.924.659.525 1.477.969 2.45 1.339.972.366 2.082.696 3.336.985 1.094.244 1.981.492 2.665.736.68.244 1.217.513 1.607.802.39.289.66.598.806.92.146.325.22.695.22 1.122v.066c0 .89-.375 1.603-1.124 2.14-.744.537-1.753.801-3.027.801-1.469 0-2.787-.26-3.943-.785-1.16-.525-2.31-1.278-3.446-2.258l-2.474 2.946c1.404 1.27 2.93 2.213 4.582 2.824a14.72 14.72 0 0 0 5.183.92c1.225 0 2.352-.155 3.374-.469 1.025-.313 1.9-.769 2.632-1.371a6.362 6.362 0 0 0 1.71-2.205c.406-.871.61-1.852.61-2.946v-.065c0-.96-.163-1.803-.485-2.527a5.526 5.526 0 0 0-1.424-1.905ZM637.62 472.784h-11.234v-9.734h-4.081v23.414h4.08v-9.868h11.235v9.868h4.082V463.05h-4.082v9.734ZM651.3 486.464h4.082V463.05H651.3v23.414ZM680.748 465.19c-.77-.687-1.705-1.22-2.808-1.586-1.107-.366-2.335-.554-3.698-.554h-9.229v23.414h4.081v-7.524h4.66a12.53 12.53 0 0 0 3.653-.52c1.14-.347 2.132-.851 2.983-1.523a7.112 7.112 0 0 0 2.01-2.49c.492-.993.74-2.144.74-3.463v-.065c0-1.184-.207-2.254-.618-3.21a7.053 7.053 0 0 0-1.774-2.478Zm-1.79 5.84c0 1.229-.452 2.238-1.36 3.019-.903.785-2.14 1.176-3.706 1.176h-4.798v-8.46h4.798c1.542 0 2.775.35 3.69 1.058.92.704 1.376 1.75 1.376 3.138v.069ZM712.588 471.347a5.055 5.055 0 0 0-1.506-1.005 4.574 4.574 0 0 0-1.823-.366c-.647 0-1.253.122-1.822.366a4.782 4.782 0 0 0-1.49 1.005c-.423.423-.765.92-1.021 1.49a4.371 4.371 0 0 0-.383 1.822v.065a4.574 4.574 0 0 0 1.388 3.313c.435.423.936.756 1.506 1 .57.249 1.175.37 1.822.37s1.258-.121 1.84-.37a4.896 4.896 0 0 0 1.521-1 4.574 4.574 0 0 0 1.388-3.312v-.066c0-.647-.13-1.257-.387-1.823a4.863 4.863 0 0 0-1.033-1.489ZM737.222 486.464h4.08v-9.534h11.805v-3.711h-11.804v-6.453h13.31v-3.716h-17.391v23.414ZM770.8 462.884l-10.3 23.58h4.212l2.409-5.652h11.072l2.372 5.652h4.35l-10.303-23.58h-3.813Zm-2.174 14.282 4.012-9.363 4.049 9.363h-8.06ZM792.503 486.464h4.081V463.05h-4.08v23.414ZM804.543 466.863h7.426v19.6h4.147v-19.6h7.422v-3.813h-18.995v3.813ZM846.552 472.784h-11.235v-9.734h-4.08v23.414h4.08v-9.868h11.235v9.868h4.081V463.05h-4.081v9.734ZM64.154 94.62c-2.111-11.365-8.317-15.113-19.681-13l-15.391 2.86-2.684-14.441 29.716-5.522-4.028-21.663-37.527 6.97C3.787 51.826-1.222 57.169.867 68.415l5.105 27.462c1.538 8.289 5.826 14.23 19.203 11.743l15.627-2.905 2.816 15.153-32.082 5.961 4.026 21.663 39.897-7.413c10.653-1.978 15.824-7.105 13.798-17.994L64.154 94.62ZM124.042 104.735c10.824-1.713 16.134-6.697 14.343-17.997l-6.453-40.804c-1.79-11.3-8.415-14.64-19.238-12.927l-47.82 7.564 15.036 95.044 24.503-3.878-3.686-23.315 23.315-3.687ZM92.821 58.462l15.584-2.465 4.48 28.312L97.3 86.775l-4.48-28.313ZM177.07 121.06l-13.107-95.3-24.568 3.381 13.106 95.296 24.568-3.377ZM210.94 116.808l-3.764-32.174L221.17 83l3.764 32.17 24.634-2.882-3.69-31.571c-.843-7.174-4.7-10.12-10.165-10.205l-.028-.24c5.306-2.32 8.247-6.177 7.41-13.355l-2.87-24.516c-1.33-11.36-7.812-14.965-18.692-13.692l-46.403 5.428 11.177 95.553 24.634-2.881Zm5.375-75.305 2.307 19.73-13.989 1.636-2.307-19.73 13.99-1.636ZM283.596 109.073l-9.298-95.756-24.686 2.396 9.297 95.756 24.687-2.396ZM304.735 32.783l5.757 73.942 24.728-1.925-5.758-73.942 20.524-1.599-1.709-21.968-65.78 5.122 1.71 21.965 20.528-1.595ZM407.083 100.52l32.356-1.282c10.946-.435 16.305-5.107 15.882-15.812l-2.605-65.678c-.435-10.946-6.62-15.04-17.085-14.624l-32.357 1.282c-10.95.435-16.28 5.708-15.877 15.93L390 86.018c.435 10.945 6.738 14.913 17.082 14.502Zm21.126-74.931 2.059 51.965-15.76.623-2.058-51.966 15.759-.622ZM490.005 98.05l-.464-32.512 28.178-.402-.313-21.916-28.174.403-.285-19.751 28.178-.399-.313-22.038-52.983.757 1.371 96.212 24.805-.354ZM612.588 83.776l.574-27.922c.24-11.552-5.079-16.48-16.63-16.715l-15.65-.326.305-14.68 30.209.622.451-22.026-38.15-.785c-10.95-.228-16.94 3.983-17.176 15.417l-.574 27.922c-.175 8.427 2.82 15.108 16.419 15.389l15.89.33-.318 15.405-32.617-.672-.456 22.022 40.56.838c10.831.224 16.935-3.747 17.163-14.82ZM636.217 99.95l24.78 1.127 3.369-74.1 20.569.935 1-22.013-65.917-2.995-1.001 22.014 20.569.935-3.37 74.097ZM682.058 102.212l24.752 1.547 1.371-21.99-24.752-1.545-1.37 21.988ZM802.37 89.615l-30.936-2.82 6.738-73.865-24.703-2.254-8.736 95.809 55.636 5.074 2.002-21.944ZM823.55 114.135l32.17 3.763c10.884 1.274 16.902-2.506 18.147-13.15l7.638-65.296c1.27-10.885-4.204-15.89-14.608-17.106l-32.17-3.764c-10.884-1.27-16.972 3.109-18.164 13.273l-7.633 65.296c-1.274 10.884 4.333 15.783 14.62 16.984Zm16.854-72.583 15.665 1.835-6.042 51.664-15.666-1.835 6.043-51.664ZM935.138 31.607 924.522 105l-15.604-2.259L919.53 29.35 894.985 25.8l-11.527 79.708c-1.636 11.316 3.6 16.333 14.44 17.9l31.218 4.517c10.84 1.566 17.403-1.742 19.039-13.062l11.528-79.708-24.545-3.548ZM970.734 37.096 955.04 131.99l24.463 4.045 15.698-94.89-24.467-4.048ZM1056.415 74.625l4.012-21.664-37.528-6.954c-10.77-1.998-17.363 1.188-19.446 12.435l-5.086 27.466c-1.538 8.289.333 15.369 13.712 17.847l15.625 2.897-2.807 15.153-32.08-5.945-4.017 21.663 39.897 7.394c10.653 1.973 17.318-.957 19.336-11.85l5.09-27.461c2.104-11.365-2.343-17.09-13.708-19.194l-15.39-2.852 2.674-14.44 29.716 5.505Z"/></g></svg>

