<svg xmlns="http://www.w3.org/2000/svg" width="1061" height="176"><g fill="#231f20"><path d="M210.195 175.01h4.082v-9.534h11.804v-3.71h-11.804v-6.454h13.31v-3.715h-17.392v23.413ZM235.712 175.01h4.081v-23.413h-4.08v23.413ZM247.752 155.41h7.426v19.6h4.147v-19.6h7.421v-3.813h-18.994v3.813ZM290.762 167.787l-12.517-16.19h-3.804v23.413h4.081v-16.654l12.883 16.654h3.438v-23.413h-4.081v16.19ZM308.291 165.045h11.74v-3.715h-11.74v-6.018h13.24v-3.715H304.21v23.413h17.492v-3.71h-13.411v-6.255ZM344.607 163.857c-.627-.545-1.416-1.01-2.364-1.388a26.892 26.892 0 0 0-3.272-1.037 34.047 34.047 0 0 1-2.767-.77c-.724-.243-1.294-.508-1.709-.785-.415-.28-.7-.59-.854-.936a2.894 2.894 0 0 1-.236-1.188v-.069c0-.777.338-1.436 1.005-1.973.667-.533 1.603-.802 2.808-.802 1.07 0 2.132.208 3.178.619 1.05.415 2.107 1.009 3.177 1.79l2.21-3.113a13.826 13.826 0 0 0-3.866-2.189c-1.371-.5-2.913-.753-4.63-.753-1.16 0-2.23.167-3.207.5-.98.338-1.818.798-2.514 1.392a6.349 6.349 0 0 0-1.644 2.14c-.399.835-.594 1.754-.594 2.76v.065c0 1.07.17 1.985.517 2.742.345.757.85 1.4 1.51 1.925.658.525 1.476.968 2.449 1.338a26.22 26.22 0 0 0 3.336.985c1.095.244 1.982.492 2.665.737.68.244 1.217.512 1.608.801.39.29.659.598.805.92.147.325.22.696.22 1.123v.065c0 .891-.374 1.603-1.123 2.14-.745.537-1.754.802-3.027.802-1.47 0-2.788-.26-3.943-.786-1.16-.524-2.311-1.277-3.447-2.258l-2.474 2.946c1.404 1.27 2.93 2.214 4.582 2.824 1.648.614 3.377.92 5.184.92 1.225 0 2.352-.155 3.373-.468 1.026-.314 1.9-.77 2.633-1.372a6.361 6.361 0 0 0 1.709-2.205c.407-.87.61-1.851.61-2.946v-.065c0-.96-.162-1.803-.484-2.527a5.526 5.526 0 0 0-1.424-1.904ZM369.355 163.857c-.627-.545-1.416-1.01-2.364-1.388a26.895 26.895 0 0 0-3.272-1.037 34.04 34.04 0 0 1-2.767-.77c-.724-.243-1.294-.508-1.709-.785-.415-.28-.7-.59-.854-.936a2.893 2.893 0 0 1-.236-1.188v-.069c0-.777.337-1.436 1.005-1.973.667-.533 1.603-.802 2.807-.802 1.07 0 2.132.208 3.178.619 1.05.415 2.108 1.009 3.178 1.79l2.21-3.113a13.827 13.827 0 0 0-3.866-2.189c-1.371-.5-2.913-.753-4.63-.753-1.16 0-2.23.167-3.207.5-.98.338-1.819.798-2.515 1.392a6.35 6.35 0 0 0-1.643 2.14c-.4.835-.595 1.754-.595 2.76v.065c0 1.07.171 1.985.517 2.742.346.757.85 1.4 1.51 1.925.659.525 1.477.968 2.45 1.338.972.367 2.083.696 3.336.985 1.095.244 1.982.492 2.665.737.68.244 1.217.512 1.607.801.391.29.66.598.806.92.147.325.22.696.22 1.123v.065c0 .891-.374 1.603-1.123 2.14-.745.537-1.754.802-3.028.802-1.468 0-2.787-.26-3.942-.786-1.16-.524-2.312-1.277-3.447-2.258l-2.474 2.946c1.404 1.27 2.93 2.214 4.582 2.824 1.648.614 3.377.92 5.184.92 1.225 0 2.352-.155 3.373-.468 1.025-.314 1.9-.77 2.633-1.372a6.362 6.362 0 0 0 1.709-2.205c.407-.87.61-1.851.61-2.946v-.065c0-.96-.163-1.803-.484-2.527a5.527 5.527 0 0 0-1.424-1.904ZM401.35 159.894a5.056 5.056 0 0 0-1.506-1.005 4.574 4.574 0 0 0-1.823-.367c-.647 0-1.253.122-1.823.367a4.784 4.784 0 0 0-1.49 1.005c-.423.423-.764.92-1.02 1.489a4.371 4.371 0 0 0-.383 1.823v.065a4.574 4.574 0 0 0 1.387 3.312c.436.423.936.757 1.506 1.001.57.248 1.176.37 1.823.37s1.257-.122 1.839-.37a4.897 4.897 0 0 0 1.522-1 4.574 4.574 0 0 0 1.388-3.312v-.066c0-.647-.13-1.258-.387-1.823a4.862 4.862 0 0 0-1.034-1.49ZM425.983 175.01h4.081v-9.534h11.804v-3.71h-11.804v-6.454h13.31v-3.715h-17.391v23.413ZM455.35 165.045h11.738v-3.715H455.35v-6.018h13.24v-3.715h-17.321v23.413h17.493v-3.71h-13.412v-6.255ZM481.102 151.597h-4.081v23.413h16.386v-3.71h-12.305v-19.703ZM505.146 151.597h-4.082v23.413h16.386v-3.71h-12.304v-19.703ZM545.144 154.742c-1.07-1.09-2.352-1.957-3.845-2.592-1.494-.634-3.146-.952-4.948-.952-1.807 0-3.459.322-4.952.969-1.493.647-2.787 1.521-3.878 2.624a11.821 11.821 0 0 0-2.543 3.85 12.113 12.113 0 0 0-.903 4.662v.07c0 1.648.3 3.202.903 4.663a11.856 11.856 0 0 0 2.506 3.829c1.07 1.094 2.352 1.957 3.85 2.592 1.493.638 3.141.956 4.948.956 1.806 0 3.454-.326 4.952-.973a12.272 12.272 0 0 0 3.877-2.624 11.826 11.826 0 0 0 2.544-3.845c.602-1.461.903-3.016.903-4.668v-.065c0-1.652-.301-3.206-.903-4.667a11.912 11.912 0 0 0-2.511-3.829Zm-.936 8.63a8.867 8.867 0 0 1-.582 3.211 8.29 8.29 0 0 1-1.615 2.625 7.54 7.54 0 0 1-2.482 1.774c-.965.431-2.027.65-3.178.65-1.156 0-2.222-.223-3.198-.67a7.891 7.891 0 0 1-2.515-1.787 7.97 7.97 0 0 1-1.632-2.645 8.886 8.886 0 0 1-.586-3.227v-.065c0-1.139.196-2.21.586-3.21a8.192 8.192 0 0 1 1.616-2.629 7.572 7.572 0 0 1 2.478-1.77c.968-.435 2.026-.655 3.182-.655 1.155 0 2.221.224 3.198.672a7.903 7.903 0 0 1 2.515 1.79c.7.745 1.24 1.628 1.631 2.64a8.987 8.987 0 0 1 .582 3.227v.07ZM580.097 168.955l-5.754-17.423h-3.475l-5.753 17.423-5.587-17.358h-4.447l8.158 23.58h3.548l5.75-16.821 5.753 16.82h3.548l8.159-23.58h-4.313l-5.587 17.36ZM612.201 163.857c-.626-.545-1.416-1.01-2.364-1.388a26.895 26.895 0 0 0-3.271-1.037 34.04 34.04 0 0 1-2.767-.77c-.724-.243-1.294-.508-1.71-.785-.414-.28-.699-.59-.854-.936a2.892 2.892 0 0 1-.236-1.188v-.069c0-.777.338-1.436 1.005-1.973.668-.533 1.604-.802 2.808-.802 1.07 0 2.132.208 3.178.619 1.05.415 2.108 1.009 3.178 1.79l2.21-3.113a13.827 13.827 0 0 0-3.866-2.189c-1.372-.5-2.914-.753-4.63-.753-1.16 0-2.23.167-3.207.5-.98.338-1.819.798-2.515 1.392a6.35 6.35 0 0 0-1.644 2.14c-.399.835-.594 1.754-.594 2.76v.065c0 1.07.171 1.985.517 2.742.346.757.85 1.4 1.51 1.925.659.525 1.477.968 2.45 1.338.972.367 2.082.696 3.336.985 1.094.244 1.981.492 2.665.737.68.244 1.217.512 1.607.801.39.29.66.598.806.92.146.325.22.696.22 1.123v.065c0 .891-.375 1.603-1.124 2.14-.744.537-1.753.802-3.027.802-1.469 0-2.787-.26-3.943-.786-1.16-.524-2.31-1.277-3.446-2.258l-2.474 2.946c1.404 1.27 2.93 2.214 4.582 2.824 1.648.614 3.377.92 5.183.92 1.225 0 2.352-.155 3.374-.468 1.025-.314 1.9-.77 2.632-1.372a6.362 6.362 0 0 0 1.71-2.205c.406-.87.61-1.851.61-2.946v-.065c0-.96-.163-1.803-.485-2.527a5.527 5.527 0 0 0-1.424-1.904ZM637.62 161.33h-11.234v-9.733h-4.081v23.413h4.08v-9.867h11.235v9.867h4.082v-23.413h-4.082v9.733ZM651.3 175.01h4.082v-23.413H651.3v23.413ZM680.748 153.737c-.77-.687-1.705-1.22-2.808-1.587-1.107-.366-2.335-.553-3.698-.553h-9.229v23.413h4.081v-7.524h4.66c1.293 0 2.514-.175 3.653-.52 1.14-.346 2.132-.85 2.983-1.522a7.111 7.111 0 0 0 2.01-2.49c.492-.993.74-2.145.74-3.463v-.065c0-1.184-.207-2.255-.618-3.21a7.054 7.054 0 0 0-1.774-2.479Zm-1.79 5.84c0 1.228-.452 2.237-1.36 3.018-.903.786-2.14 1.176-3.706 1.176h-4.798v-8.46h4.798c1.542 0 2.775.35 3.69 1.059.92.704 1.376 1.75 1.376 3.137v.07ZM712.588 159.894a5.056 5.056 0 0 0-1.506-1.005 4.574 4.574 0 0 0-1.823-.367c-.647 0-1.253.122-1.822.367a4.783 4.783 0 0 0-1.49 1.005c-.423.423-.765.92-1.021 1.489a4.371 4.371 0 0 0-.383 1.823v.065a4.574 4.574 0 0 0 1.388 3.312c.435.423.936.757 1.506 1.001.57.248 1.175.37 1.822.37s1.258-.122 1.84-.37a4.897 4.897 0 0 0 1.521-1 4.574 4.574 0 0 0 1.388-3.312v-.066c0-.647-.13-1.258-.387-1.823a4.863 4.863 0 0 0-1.033-1.49ZM737.222 175.01h4.08v-9.534h11.805v-3.71h-11.804v-6.454h13.31v-3.715h-17.391v23.413ZM770.8 151.43l-10.3 23.58h4.212l2.409-5.652h11.072l2.372 5.652h4.35l-10.303-23.58h-3.813Zm-2.174 14.282 4.012-9.363 4.049 9.363h-8.06ZM792.503 175.01h4.081v-23.413h-4.08v23.413ZM804.543 155.41h7.426v19.6h4.147v-19.6h7.422v-3.813h-18.995v3.813ZM846.552 161.33h-11.235v-9.733h-4.08v23.413h4.08v-9.867h11.235v9.867h4.081v-23.413h-4.081v9.733ZM64.154 94.037c-2.111-11.365-8.317-15.113-19.681-13l-15.391 2.86-2.684-14.441 29.716-5.522-4.028-21.663-37.527 6.97C3.787 51.243-1.222 56.586.867 67.832l5.105 27.462c1.538 8.289 5.826 14.23 19.203 11.743l15.627-2.905 2.816 15.153-32.082 5.961 4.026 21.663 39.897-7.413c10.653-1.978 15.824-7.105 13.798-17.993l-5.103-27.466ZM131.932 45.351c-1.79-11.3-8.415-14.64-19.238-12.927l-47.82 7.564 15.036 95.044 24.503-3.878-3.686-23.315 23.315-3.687c10.824-1.713 16.134-6.697 14.343-17.997l-6.453-40.804ZM97.3 86.191 92.82 57.88l15.584-2.465 4.48 28.312L97.3 86.192ZM139.395 28.558l13.106 95.296 24.568-3.377-13.106-95.3-24.568 3.381ZM207.176 84.051l13.993-1.635 3.764 32.17 24.634-2.882-3.69-31.571c-.843-7.174-4.7-10.12-10.165-10.205l-.028-.24c5.306-2.32 8.247-6.177 7.41-13.355l-2.87-24.516c-1.33-11.36-7.812-14.965-18.692-13.692l-46.403 5.428 11.177 95.553 24.634-2.881-3.764-32.174Zm-4.85-41.495 13.99-1.636 2.306 19.73-13.989 1.636-2.307-19.73ZM283.596 108.49l-9.298-95.756-24.686 2.396 9.297 95.756 24.687-2.396ZM282.498 11.83l1.709 21.965 20.528-1.595 5.757 73.942 24.728-1.925-5.758-73.942 20.524-1.599-1.709-21.968-65.78 5.122ZM455.32 82.843l-2.604-65.678c-.435-10.946-6.62-15.04-17.085-14.624l-32.357 1.282c-10.95.435-16.28 5.708-15.877 15.93L390 85.435c.435 10.945 6.738 14.913 17.082 14.502l32.356-1.282c10.946-.435 16.305-5.107 15.882-15.812Zm-40.812-5.25-2.058-51.965 15.759-.622 2.059 51.965-15.76.623ZM489.232 43.04l-.285-19.751 28.178-.399-.313-22.038-52.983.757 1.371 96.212 24.805-.354-.464-32.512 28.178-.402-.313-21.916-28.174.403ZM612.588 83.193l.574-27.922c.24-11.552-5.079-16.48-16.63-16.715l-15.65-.326.305-14.68 30.209.622.451-22.026-38.15-.785c-10.95-.228-16.94 3.983-17.176 15.417l-.574 27.922c-.175 8.427 2.82 15.108 16.419 15.389l15.89.33-.318 15.405-32.617-.672-.456 22.022 40.56.838c10.831.224 16.935-3.747 17.163-14.82ZM685.936 5.316l-65.918-2.995-1.001 22.014 20.569.935-3.37 74.097 24.78 1.127 3.37-74.1 20.569.935 1-22.013ZM682.058 101.63l24.752 1.546 1.371-21.99-24.752-1.545-1.37 21.988ZM778.172 12.347l-24.703-2.254-8.736 95.809 55.636 5.074 2.002-21.944-30.937-2.82 6.738-73.865ZM866.897 21.763l-32.17-3.764c-10.884-1.27-16.972 3.109-18.164 13.273l-7.633 65.296c-1.274 10.884 4.333 15.783 14.62 16.984l32.17 3.763c10.884 1.274 16.902-2.506 18.147-13.15l7.638-65.296c1.27-10.885-4.204-15.89-14.608-17.106Zm-16.87 72.705-15.666-1.835 6.043-51.664 15.665 1.835-6.042 51.664ZM935.138 31.024l-10.616 73.393-15.604-2.259 10.612-73.392-24.545-3.549-11.527 79.708c-1.636 11.316 3.6 16.333 14.44 17.9l31.218 4.517c10.84 1.566 17.403-1.742 19.039-13.062l11.528-79.708-24.545-3.548ZM970.734 36.513l-15.694 94.893 24.463 4.045 15.698-94.89-24.467-4.048ZM1056.415 74.042l4.012-21.664-37.528-6.954c-10.77-1.998-17.363 1.188-19.446 12.435l-5.086 27.466c-1.538 8.288.333 15.369 13.712 17.847l15.625 2.897-2.807 15.153-32.08-5.945-4.017 21.663 39.897 7.394c10.653 1.973 17.318-.956 19.336-11.85l5.09-27.461c2.104-11.365-2.343-17.09-13.708-19.194l-15.39-2.852 2.674-14.44 29.716 5.505Z"/></g></svg>